<?xml version="1.0" standalone="no"?>
<!DOCTYPE svg PUBLIC "-//W3C//DTD SVG 20010904//EN"
 "http://www.w3.org/TR/2001/REC-SVG-20010904/DTD/svg10.dtd">
<svg version="1.0" xmlns="http://www.w3.org/2000/svg"
 width="512.000000pt" height="512.000000pt" viewBox="0 0 512.000000 512.000000"
 preserveAspectRatio="xMidYMid meet">
<metadata>
Created by potrace 1.14, written by Peter Selinger 2001-2017
</metadata>
<g transform="translate(0.000000,512.000000) scale(0.100000,-0.100000)"
fill="#000000" stroke="none">
<path d="M478 5108 c-22 -8 -40 -35 -92 -137 l-65 -127 -128 -18 c-133 -18
-167 -31 -185 -71 -18 -41 -1 -70 101 -172 l99 -98 -14 -75 c-34 -188 -34
-213 -3 -247 35 -36 83 -27 206 41 56 31 107 56 114 56 6 0 63 -27 127 -60 65
-33 130 -60 145 -60 17 0 38 10 54 26 24 24 25 30 19 92 -4 37 -11 83 -16 102
-4 19 -11 55 -14 81 l-7 45 95 94 c106 104 121 130 100 178 -17 42 -35 48
-184 69 l-125 18 -60 117 c-33 65 -67 124 -75 132 -20 20 -59 25 -92 14z m67
-331 c34 -73 52 -86 131 -99 38 -6 71 -12 73 -14 2 -2 -21 -26 -50 -54 -58
-56 -62 -71 -45 -177 l8 -52 -67 34 c-36 19 -73 35 -81 35 -8 0 -45 -15 -83
-34 l-68 -35 10 57 c5 31 10 64 12 72 4 23 -13 51 -63 102 -25 26 -44 49 -41
52 2 2 29 7 59 11 82 10 101 23 135 92 16 35 33 63 37 63 4 0 19 -24 33 -53z"/>
<path d="M1797 5099 c-119 -62 -117 -238 3 -299 178 -91 337 146 186 277 -51
45 -126 54 -189 22z"/>
<path d="M4224 5109 c-30 -15 -44 -51 -44 -114 0 -74 13 -103 54 -120 41 -17
76 -8 100 27 23 32 22 155 -2 186 -20 26 -76 37 -108 21z"/>
<path d="M3994 4862 c-27 -4 -65 -43 -66 -68 -6 -74 35 -104 137 -100 60 3 71
6 92 30 30 36 30 80 -2 111 -13 14 -32 26 -42 26 -50 3 -100 4 -119 1z"/>
<path d="M4404 4855 c-53 -22 -67 -96 -26 -137 16 -16 36 -22 88 -24 95 -4
128 16 140 85 4 22 -24 69 -45 76 -39 12 -128 13 -157 0z"/>
<path d="M4210 4670 c-26 -26 -33 -59 -28 -131 4 -50 9 -65 29 -80 35 -27 85
-24 114 6 22 21 25 33 25 98 0 95 -21 127 -81 127 -25 0 -46 -7 -59 -20z"/>
<path d="M1938 4590 c-35 -27 -38 -57 -17 -163 9 -51 20 -119 24 -152 3 -33 8
-76 11 -95 11 -82 4 -405 -11 -490 -2 -14 -7 -45 -10 -70 -17 -138 -99 -433
-150 -545 -54 -117 -135 -325 -135 -346 0 -15 9 -38 21 -53 25 -31 82 -36 115
-8 22 18 185 401 224 527 140 454 160 855 66 1332 -15 76 -83 107 -138 63z"/>
<path d="M2562 4421 c-94 -32 -160 -117 -169 -217 -19 -198 186 -337 365 -247
98 48 150 142 139 250 -17 167 -175 268 -335 214z m146 -186 c46 -54 10 -135
-60 -135 -46 0 -76 24 -84 65 -16 86 86 136 144 70z"/>
<path d="M3229 4182 c-15 -2 -37 -14 -50 -28 -23 -24 -23 -28 -24 -261 -1
-257 4 -284 53 -300 32 -11 468 -10 498 0 44 15 49 48 48 301 l0 237 -26 26
-26 26 -224 1 c-123 1 -235 0 -249 -2z m351 -182 c3 -4 5 -61 5 -126 l-1 -119
-127 0 c-70 0 -127 2 -128 5 0 3 -1 60 -2 127 l-2 122 40 3 c66 5 209 -3 215
-12z"/>
<path d="M4584 3923 c-45 -8 -59 -39 -59 -125 0 -76 1 -81 29 -105 24 -20 36
-24 65 -19 54 8 71 38 71 123 0 61 -3 76 -22 97 -25 26 -51 35 -84 29z"/>
<path d="M1127 3900 c-181 -46 -277 -191 -264 -399 20 -307 282 -777 682
-1227 74 -84 306 -318 390 -395 256 -233 690 -515 923 -599 34 -13 60 -25 57
-28 -5 -5 -504 -196 -563 -215 -27 -9 -42 -7 -90 13 -126 52 -274 129 -397
208 -61 39 -181 126 -195 142 -3 3 -34 29 -70 59 -324 271 -588 675 -727 1115
-29 92 -26 79 -57 229 -25 117 -45 166 -69 168 -6 0 -20 2 -31 4 -27 5 -62
-14 -76 -41 -44 -82 95 -551 253 -853 237 -453 644 -860 1084 -1084 57 -29
103 -55 103 -58 0 -6 -201 -84 -445 -174 -33 -12 -168 -63 -300 -113 l-239
-92 -29 28 c-105 98 -122 116 -200 212 -74 90 -159 272 -196 417 -23 93 -34
173 -46 343 -3 41 -7 95 -10 120 -2 25 -7 83 -11 130 -3 46 -10 95 -15 107
-18 48 -94 60 -136 21 -25 -23 -25 -24 -18 -138 3 -63 8 -127 10 -141 1 -14 6
-63 9 -110 13 -170 21 -237 42 -334 55 -250 189 -490 378 -678 21 -21 35 -42
30 -46 -5 -4 -72 -31 -149 -60 -77 -28 -149 -56 -160 -61 -60 -26 -377 -141
-380 -138 -2 2 1 24 6 48 6 25 12 52 14 60 2 8 27 109 55 224 45 182 50 212
39 238 -14 34 -38 49 -81 50 -56 2 -70 -28 -133 -284 -31 -128 -70 -288 -86
-355 -30 -125 -31 -159 -1 -187 39 -35 62 -28 469 125 219 83 425 161 458 173
33 13 170 64 305 116 135 51 272 103 305 115 33 12 173 65 310 117 138 53 360
137 495 188 571 215 747 282 775 295 17 7 44 17 60 21 17 4 35 10 40 14 6 4
40 17 77 29 163 54 241 169 241 356 -1 86 -2 97 -28 194 -44 169 -75 210 -147
191 -60 -17 -72 -64 -41 -160 49 -148 59 -262 29 -332 -86 -200 -523 -69
-1051 315 -395 288 -840 771 -1078 1172 -84 142 -175 341 -191 416 -3 13 -8
35 -11 49 -14 59 -17 141 -5 189 21 89 96 134 214 129 49 -2 60 1 83 24 34 34
34 82 0 115 -20 21 -36 25 -98 28 -41 2 -91 0 -112 -5z"/>
<path d="M4249 3771 c-43 -44 -37 -84 21 -141 69 -67 101 -75 149 -34 44 36
42 77 -5 132 -65 77 -118 90 -165 43z"/>
<path d="M4855 3779 c-91 -67 -114 -140 -60 -187 43 -37 88 -26 148 37 37 39
47 57 47 83 -1 73 -76 110 -135 67z"/>
<path d="M2947 3485 c-16 -8 -49 -34 -74 -57 -25 -24 -53 -50 -62 -58 -9 -8
-121 -109 -250 -225 -128 -115 -246 -221 -261 -235 -16 -14 -54 -47 -85 -75
-142 -125 -165 -152 -165 -187 0 -59 57 -100 111 -80 20 8 244 205 604 531 22
20 83 74 135 121 149 133 170 156 170 184 0 37 -19 72 -47 85 -31 14 -42 14
-76 -4z"/>
<path d="M4490 3493 c-8 -4 -85 -40 -170 -81 -85 -41 -192 -92 -237 -113 -45
-21 -157 -75 -249 -119 -91 -44 -167 -80 -169 -80 -1 0 -78 -36 -171 -81 -93
-45 -209 -100 -259 -124 -49 -23 -137 -65 -195 -93 -58 -27 -161 -76 -230
-109 -69 -33 -133 -67 -142 -77 -27 -26 -23 -87 6 -115 44 -42 49 -40 391 124
66 32 161 77 210 100 50 24 144 69 210 100 66 32 161 77 210 100 50 24 144 68
210 100 66 31 158 75 205 97 47 23 163 78 259 124 95 46 176 84 180 84 3 1 17
10 30 20 36 31 35 94 -2 126 -27 23 -56 29 -87 17z"/>
<path d="M4890 3471 c-23 -23 -28 -34 -24 -62 8 -55 44 -79 119 -79 81 0 111
14 125 56 25 73 -19 114 -122 114 -63 0 -72 -3 -98 -29z"/>
<path d="M4807 3244 c-26 -14 -47 -63 -40 -94 5 -19 49 -69 87 -98 88 -68 183
41 110 127 -33 40 -81 73 -108 76 -12 2 -34 -4 -49 -11z"/>
<path d="M4574 3150 c-41 -16 -56 -56 -52 -131 5 -75 21 -103 65 -114 34 -8
77 10 92 39 17 30 17 141 1 171 -7 13 -26 29 -43 35 -34 12 -35 12 -63 0z"/>
<path d="M3158 2305 c-2 -2 -39 -6 -83 -9 -77 -6 -138 -13 -180 -20 -11 -2
-98 -16 -193 -32 -142 -23 -178 -32 -198 -51 -33 -30 -33 -85 1 -118 27 -28
52 -30 136 -15 30 5 70 12 89 15 19 3 46 7 60 10 14 3 41 7 60 10 19 3 46 7
60 10 179 34 527 38 745 9 149 -20 360 -70 515 -122 47 -16 96 -27 110 -25 34
4 70 48 70 83 0 60 -48 85 -305 161 -51 14 -218 50 -260 55 -22 3 -47 7 -55 9
-8 3 -44 7 -80 10 -36 4 -74 9 -85 12 -20 6 -401 13 -407 8z"/>
<path d="M4614 2037 c-221 -73 -236 -382 -22 -477 126 -56 260 -5 331 125 30
55 30 163 0 221 -58 110 -194 168 -309 131z m137 -184 c51 -51 14 -143 -57
-143 -88 0 -116 114 -39 158 26 15 74 8 96 -15z"/>
<path d="M3879 1438 c-42 -34 -47 -98 -11 -131 9 -9 55 -25 102 -37 215 -53
414 -164 554 -308 l39 -41 -44 -11 c-121 -33 -257 -140 -309 -245 -21 -43 -25
-64 -25 -145 0 -80 4 -103 25 -145 31 -63 100 -133 165 -165 43 -22 63 -25
145 -25 84 1 101 4 149 29 104 54 167 145 194 281 l14 70 25 -50 c56 -109 55
-254 -2 -365 -24 -47 -25 -82 -4 -115 19 -29 72 -42 103 -25 66 35 122 214
114 365 -9 166 -123 371 -245 443 -16 9 -55 53 -85 97 -73 105 -237 267 -338
333 -44 29 -116 70 -160 91 -170 82 -367 130 -406 99z m788 -725 c26 -34 28
-43 28 -127 0 -75 -4 -99 -23 -139 -78 -156 -306 -115 -320 58 -4 45 0 62 22
99 45 78 151 146 228 146 31 0 42 -6 65 -37z"/>
</g>
</svg>
